<svg width="1600" height="960" viewBox="0 0 1600 960" fill="none" xmlns="http://www.w3.org/2000/svg">
  <defs>
    <linearGradient id="void" x1="312" y1="48" x2="1254" y2="934" gradientUnits="userSpaceOnUse">
      <stop stop-color="#2F2342"/>
      <stop offset="0.44" stop-color="#171222"/>
      <stop offset="1" stop-color="#09080D"/>
    </linearGradient>
    <radialGradient id="torchGlow" cx="0" cy="0" r="1" gradientUnits="userSpaceOnUse" gradientTransform="translate(796 430) rotate(90) scale(310 420)">
      <stop stop-color="#E0A752" stop-opacity="0.7"/>
      <stop offset="1" stop-color="#E0A752" stop-opacity="0"/>
    </radialGradient>
    <linearGradient id="stairs" x1="800" y1="510" x2="800" y2="960" gradientUnits="userSpaceOnUse">
      <stop stop-color="#473B58"/>
      <stop offset="1" stop-color="#120F17"/>
    </linearGradient>
  </defs>

  <rect width="1600" height="960" fill="url(#void)"/>
  <rect width="1600" height="960" fill="url(#torchGlow)"/>

  <path d="M310 960C340 830 377 732 420 665C467 592 540 500 640 388C585 513 556 704 555 960H310Z" fill="#0C0A0E"/>
  <path d="M1292 960C1259 822 1218 719 1170 650C1119 577 1049 496 962 406C1006 505 1037 690 1044 960H1292Z" fill="#0B0A0E"/>

  <path d="M441 960V760L640 560H960L1159 760V960H441Z" fill="url(#stairs)"/>
  <path d="M640 560L798 440L960 560H640Z" fill="#5B496F"/>
  <path d="M562 960L694 680H906L1038 960H562Z" fill="#17131D"/>

  <path d="M332 880L800 144L1268 880H1119L800 372L481 880H332Z" fill="#231B2E"/>
  <path d="M437 880L800 272L1163 880H1052L800 462L548 880H437Z" fill="#120F17"/>

  <rect x="766" y="520" width="68" height="236" rx="8" fill="#0A090C"/>
  <path d="M703 520C703 468 746 426 800 426C854 426 897 468 897 520H703Z" fill="#0D0B0F"/>
  <path d="M744 520C744 490 769 466 800 466C831 466 856 490 856 520H744Z" fill="#1C1822"/>

  <circle cx="680" cy="455" r="19" fill="#E8B96A"/>
  <circle cx="920" cy="455" r="19" fill="#E8B96A"/>
  <circle cx="680" cy="455" r="54" fill="#E8B96A" fill-opacity="0.16"/>
  <circle cx="920" cy="455" r="54" fill="#E8B96A" fill-opacity="0.16"/>
  <rect x="666" y="455" width="28" height="120" rx="14" fill="#2B1C12"/>
  <rect x="906" y="455" width="28" height="120" rx="14" fill="#2B1C12"/>

  <path d="M641 655H959L933 694H667L641 655Z" fill="#6F5C86"/>
  <path d="M618 726H982L955 767H645L618 726Z" fill="#57496B"/>
  <path d="M592 804H1008L980 849H620L592 804Z" fill="#3E334E"/>
  <path d="M564 886H1036L1007 936H593L564 886Z" fill="#2A2236"/>

  <path d="M220 280C308 237 392 226 474 248C410 287 359 337 320 399C287 453 261 529 241 628L177 590C186 458 200 355 220 280Z" fill="#120F16" fill-opacity="0.88"/>
  <path d="M1380 280C1292 237 1208 226 1126 248C1190 287 1241 337 1280 399C1313 453 1339 529 1359 628L1423 590C1414 458 1400 355 1380 280Z" fill="#120F16" fill-opacity="0.88"/>
</svg>
