<svg width="64" height="64" viewBox="0 0 64 64" fill="none" xmlns="http://www.w3.org/2000/svg">
  <path d="M32 14 C24 12 14 13 8 15 L8 52 C14 50 24 51 32 53 Z" stroke="#FFFFFF" stroke-width="2.6" stroke-linejoin="round" fill="none"/>
  <path d="M32 14 C40 12 50 13 56 15 L56 52 C50 50 40 51 32 53 Z" stroke="#FFFFFF" stroke-width="2.6" stroke-linejoin="round" fill="none"/>
  <path d="M32 13 L32 54" stroke="#FFFFFF" stroke-width="2.4" stroke-linecap="round"/>
  <path d="M13 23 L28 22" stroke="#FFFFFF" stroke-width="2.2" stroke-linecap="round"/>
  <path d="M13 30 L28 29" stroke="#FFFFFF" stroke-width="2.2" stroke-linecap="round"/>
  <path d="M13 37 L28 36" stroke="#FFFFFF" stroke-width="2.2" stroke-linecap="round"/>
  <path d="M13 44 L23 43" stroke="#FFFFFF" stroke-width="2.2" stroke-linecap="round"/>
  <path d="M36 23 L51 22" stroke="#FFFFFF" stroke-width="2.2" stroke-linecap="round"/>
  <path d="M36 30 L51 29" stroke="#FFFFFF" stroke-width="2.2" stroke-linecap="round"/>
  <path d="M36 37 L51 36" stroke="#FFFFFF" stroke-width="2.2" stroke-linecap="round"/>
  <path d="M36 44 L46 43" stroke="#FFFFFF" stroke-width="2.2" stroke-linecap="round"/>
</svg>
