<svg width="64" height="64" viewBox="0 0 64 64" fill="none" xmlns="http://www.w3.org/2000/svg">
  <circle cx="32" cy="32" r="23" stroke="#FFFFFF" stroke-width="2.4"/>
  <circle cx="32" cy="25" r="8.5" stroke="#FFFFFF" stroke-width="2.6"/>
  <path d="M32 16L33.8 21.2L39 23L33.8 24.8L32 30L30.2 24.8L25 23L30.2 21.2L32 16Z" fill="#FFFFFF"/>
  <path d="M32 33V47" stroke="#FFFFFF" stroke-width="3" stroke-linecap="round"/>
  <path d="M32 47C31.1 43.8 28.4 41.9 24.5 41.2C27.1 37.9 29.9 35.2 32 33Z" fill="#FFFFFF"/>
  <path d="M32 47C32.9 43.8 35.6 41.9 39.5 41.2C36.9 37.9 34.1 35.2 32 33Z" fill="#FFFFFF"/>
  <path d="M21 49H43" stroke="#FFFFFF" stroke-width="2.4" stroke-linecap="round"/>
</svg>
