<svg width="1600" height="960" viewBox="0 0 1600 960" fill="none" xmlns="http://www.w3.org/2000/svg">
  <defs>
    <linearGradient id="sky" x1="205" y1="90" x2="1320" y2="910" gradientUnits="userSpaceOnUse">
      <stop stop-color="#8E5925"/>
      <stop offset="0.4" stop-color="#4A2815"/>
      <stop offset="1" stop-color="#150D09"/>
    </linearGradient>
    <radialGradient id="sun" cx="0" cy="0" r="1" gradientUnits="userSpaceOnUse" gradientTransform="translate(1100 208) rotate(90) scale(250 250)">
      <stop stop-color="#F0C774" stop-opacity="0.95"/>
      <stop offset="1" stop-color="#F0C774" stop-opacity="0"/>
    </radialGradient>
    <linearGradient id="road" x1="864" y1="466" x2="872" y2="960" gradientUnits="userSpaceOnUse">
      <stop stop-color="#A98044"/>
      <stop offset="1" stop-color="#3E2512"/>
    </linearGradient>
  </defs>

  <rect width="1600" height="960" fill="url(#sky)"/>
  <rect width="1600" height="960" fill="url(#sun)"/>
  <circle cx="1094" cy="206" r="96" fill="#F2D597" fill-opacity="0.92"/>

  <path d="M0 608L162 479L306 572L470 409L616 555L784 360L948 529L1108 345L1268 504L1438 402L1600 563V960H0V608Z" fill="#2E1A11" fill-opacity="0.74"/>
  <path d="M0 708C129 648 254 621 373 615C507 607 602 659 734 645C855 633 976 547 1124 536C1314 522 1461 586 1600 658V960H0V708Z" fill="#1A120D"/>

  <path d="M535 960C598 836 657 752 712 707C769 660 837 626 918 605C827 657 742 775 662 960H535Z" fill="#0E0C0B" fill-opacity="0.88"/>
  <path d="M672 960C746 811 819 718 891 681C954 649 1025 632 1103 631C1008 677 919 786 838 960H672Z" fill="url(#road)"/>
  <path d="M742 960C810 842 871 768 925 738C986 705 1045 689 1102 688C1028 730 959 821 894 960H742Z" fill="#D4B079" fill-opacity="0.56"/>

  <path d="M1024 300L1088 242L1155 300V592H1024V300Z" fill="#22140E"/>
  <rect x="1053" y="322" width="18" height="270" fill="#402214"/>
  <rect x="1105" y="322" width="18" height="270" fill="#402214"/>
  <path d="M993 592H1188L1235 640H944L993 592Z" fill="#140F0C"/>
  <path d="M1090 218L1128 242H1052L1090 218Z" fill="#CDA568"/>
  <path d="M1105 254L1153 287H1029L1077 254H1105Z" fill="#C08C4A"/>
  <path d="M1124 331L1174 366H1101L1124 331Z" fill="#D0A25C"/>
  <path d="M1064 454C1064 439 1076 426 1091 426C1106 426 1118 439 1118 454V592H1064V454Z" fill="#A3753A"/>

  <path d="M254 700C322 664 375 639 413 625C470 603 526 592 582 592C540 629 507 671 483 718C462 760 445 841 433 960H248L254 700Z" fill="#15100C" fill-opacity="0.88"/>
  <path d="M1192 700C1272 648 1336 614 1385 598C1443 579 1500 574 1558 584C1498 629 1453 683 1422 747C1395 803 1372 874 1353 960H1170L1192 700Z" fill="#16100D" fill-opacity="0.76"/>

  <circle cx="638" cy="414" r="19" fill="#F6D9A0"/>
  <path d="M611 468C611 442 633 420 660 420C687 420 709 442 709 468V560H611V468Z" fill="#25160F"/>
  <path d="M694 615L573 615L598 555H669L694 615Z" fill="#B7894D"/>
</svg>
